# xmcd
#
# Track frame offsets: 
#        150
#        17400
#        36450
#        51259
#        69990
#        84765
#        108115
#        126815
#        146709
#        163453
#        182549
#        206562
#        223555
#        238870
#        258843
#        276965
#
# Disc length: 4044 seconds
#
# Revision: 0
# Processed by: cddbd v1.5.2PL0 Copyright (c) Steve Scherf et al.
# Submitted via: ExactAudioCopyFreeDBPlugin 1.0
#
DISCID=e40fca10
DTITLE=Marcelo Yuka - Canções Para Depois Do Ódio
DYEAR=1900
DGENRE=
TTITLE0=O dia em que o homem se cansa
TTITLE1=Assim é a água
TTITLE2=Movimento da massa
TTITLE3=Por pouco
TTITLE4=Myto
TTITLE5=Agora nesse momento
TTITLE6=Confusão
TTITLE7=Até você
TTITLE8=Dali
TTITLE9=A carga
TTITLE10=Um minuto antes do fim
TTITLE11=Memórias artesanais
TTITLE12=A tempestade
TTITLE13=Cortejo milenar
TTITLE14=Cidade do amparo
TTITLE15=Algo mais explícito
EXTD=
EXTT0=
EXTT1=
EXTT2=
EXTT3=
EXTT4=
EXTT5=
EXTT6=
EXTT7=
EXTT8=
EXTT9=
EXTT10=
EXTT11=
EXTT12=
EXTT13=
EXTT14=
EXTT15=
PLAYORDER=
